<svg xmlns="http://www.w3.org/2000/svg" width="52.996" height="53.009" viewBox="0 0 52.996 53.009">
  <g id="Icon_ionic-ios-timer" data-name="Icon ionic-ios-timer" transform="translate(-3.938 -200.938)">
    <path id="Path_8172" data-name="Path 8172" d="M30.442,56.947A26.505,26.505,0,0,1,12.048,11.359,2.128,2.128,0,1,1,15,14.42,22.244,22.244,0,1,0,32.563,8.3v8.3a2.134,2.134,0,1,1-4.267,0V6.071a2.132,2.132,0,0,1,2.134-2.134,26.5,26.5,0,0,1,.013,53.009Z" transform="translate(0 197)" fill="#f99d41"/>
    <path id="Path_8173" data-name="Path 8173" d="M13.355,11.5l13.186,9.475A3.99,3.99,0,0,1,21.9,27.469a3.853,3.853,0,0,1-.928-.928L11.5,13.356A1.33,1.33,0,0,1,13.355,11.5Z" transform="translate(6.472 203.471)" fill="#f99d41"/>
  </g>
</svg>
