<svg xmlns="http://www.w3.org/2000/svg" width="65.855" height="51.221" viewBox="0 0 65.855 51.221">
  <path id="Icon_awesome-id-card" data-name="Icon awesome-id-card" d="M60.368,2.25H5.488A5.489,5.489,0,0,0,0,7.738V9.567H65.855V7.738A5.489,5.489,0,0,0,60.368,2.25ZM0,47.983a5.489,5.489,0,0,0,5.488,5.488h54.88a5.489,5.489,0,0,0,5.488-5.488V13.226H0ZM40.245,21.458a.917.917,0,0,1,.915-.915H57.624a.917.917,0,0,1,.915.915v1.829a.917.917,0,0,1-.915.915H41.16a.917.917,0,0,1-.915-.915Zm0,7.317a.917.917,0,0,1,.915-.915H57.624a.917.917,0,0,1,.915.915V30.6a.917.917,0,0,1-.915.915H41.16a.917.917,0,0,1-.915-.915Zm0,7.317a.917.917,0,0,1,.915-.915H57.624a.917.917,0,0,1,.915.915v1.829a.917.917,0,0,1-.915.915H41.16a.917.917,0,0,1-.915-.915ZM20.123,20.543a7.317,7.317,0,1,1-7.317,7.317A7.324,7.324,0,0,1,20.123,20.543ZM7.672,43.89a7.328,7.328,0,0,1,6.963-5.053h.938a11.777,11.777,0,0,0,9.1,0h.938a7.328,7.328,0,0,1,6.963,5.053,1.8,1.8,0,0,1-1.784,2.264H9.455A1.8,1.8,0,0,1,7.672,43.89Z" transform="translate(0 -2.25)" fill="#26c5b7"/>
</svg>
