<svg xmlns="http://www.w3.org/2000/svg" width="62.358" height="76.04" viewBox="0 0 62.358 76.04">
  <g id="Group_6179" data-name="Group 6179" transform="translate(-149.642 -1379)">
    <path id="Icon_material-phonelink-setup" data-name="Icon material-phonelink-setup" d="M59.883,1.5H25.319a6.933,6.933,0,0,0-6.913,6.913V18.782h6.913V11.869H59.883v55.3H25.319V60.258H18.407V70.628a6.933,6.933,0,0,0,6.913,6.913H59.883A6.933,6.933,0,0,0,66.8,70.628V8.413A6.933,6.933,0,0,0,59.883,1.5Z" transform="translate(145.204 1377.5)" fill="#26c5b7"/>
    <path id="Icon_awesome-check" data-name="Icon awesome-check" d="M15.188,37.268.655,22.735a2.236,2.236,0,0,1,0-3.162l3.162-3.162a2.236,2.236,0,0,1,3.162,0l9.79,9.79L37.738,5.232a2.236,2.236,0,0,1,3.162,0l3.162,3.162a2.236,2.236,0,0,1,0,3.162L18.35,37.268A2.236,2.236,0,0,1,15.188,37.268Z" transform="translate(149.642 1394.173)" fill="#26c5b7"/>
  </g>
</svg>
