<svg xmlns="http://www.w3.org/2000/svg" width="76.658" height="62.281" viewBox="0 0 76.658 62.281">
  <g id="Group_6181" data-name="Group 6181" transform="translate(-146 -2070)">
    <g id="Icon_ionic-ios-person-add" data-name="Icon ionic-ios-person-add" transform="translate(141.499 2065.5)">
      <path id="Path_8178" data-name="Path 8178" d="M56.611,56.725c-2.53-.892-6.131-1.1-8.45-1.622a8.586,8.586,0,0,1-3.909-1.8c-.568-.681-.341-6.228-.276-7.655a1.68,1.68,0,0,1,.178-.616,23.938,23.938,0,0,0,1.671-3.244,36.812,36.812,0,0,0,1.233-5.4,1.262,1.262,0,0,1,.649-.908A2.952,2.952,0,0,0,48.971,33.3c.5-2.546,1.3-3.536,1.2-5.433a2.294,2.294,0,0,0-.519-1.541,1.224,1.224,0,0,1-.324-1.2,34.2,34.2,0,0,0,.843-7.4C50.318,11.069,45.1,4.5,35.656,4.5c-9.585,0-14.678,6.569-14.532,13.235a35.671,35.671,0,0,0,.827,7.4,1.291,1.291,0,0,1-.324,1.2,2.212,2.212,0,0,0-.519,1.541c-.1,1.9.7,2.887,1.2,5.433a2.99,2.99,0,0,0,1.265,2.173,1.294,1.294,0,0,1,.649.908,36.814,36.814,0,0,0,1.233,5.4,24.859,24.859,0,0,0,1.671,3.244,1.142,1.142,0,0,1,.178.616c.065,1.427.292,6.99-.276,7.655a8.586,8.586,0,0,1-3.909,1.8c-2.319.519-5.92.73-8.45,1.622-2.3.811-8.969,3.325-10.137,8.483a1.3,1.3,0,0,0,1.281,1.573h59.67a1.294,1.294,0,0,0,1.265-1.573C65.58,60.05,58.914,57.536,56.611,56.725Z" transform="translate(0)" fill="#26c1ba"/>
    </g>
    <path id="Icon_awesome-id-card" data-name="Icon awesome-id-card" d="M26.362,2.25H2.4A2.4,2.4,0,0,0,0,4.647v.8H28.759v-.8A2.4,2.4,0,0,0,26.362,2.25ZM0,22.222a2.4,2.4,0,0,0,2.4,2.4H26.362a2.4,2.4,0,0,0,2.4-2.4V7.043H0ZM17.575,10.638a.4.4,0,0,1,.4-.4h7.19a.4.4,0,0,1,.4.4v.8a.4.4,0,0,1-.4.4h-7.19a.4.4,0,0,1-.4-.4Zm0,3.2a.4.4,0,0,1,.4-.4h7.19a.4.4,0,0,1,.4.4v.8a.4.4,0,0,1-.4.4h-7.19a.4.4,0,0,1-.4-.4Zm0,3.2a.4.4,0,0,1,.4-.4h7.19a.4.4,0,0,1,.4.4v.8a.4.4,0,0,1-.4.4h-7.19a.4.4,0,0,1-.4-.4Zm-8.787-6.79a3.2,3.2,0,1,1-3.2,3.2A3.2,3.2,0,0,1,8.787,10.239ZM3.35,20.434a3.2,3.2,0,0,1,3.041-2.207H6.8a5.143,5.143,0,0,0,3.974,0h.409a3.2,3.2,0,0,1,3.041,2.207.786.786,0,0,1-.779.989H4.129A.788.788,0,0,1,3.35,20.434Z" transform="translate(193.898 2094.03)" fill="#26c5b7"/>
  </g>
</svg>
